# xmcd
# 
# Track frame offsets:
#     150
#     29378
#     43073
#     69713
#     99445
#     116593
#     135233
#     157515
#     161485
#     186173
#     207718
#     210590
#     236855
#     257335
#     286413
# 
# Disc length: 3857
# 
# Revision: 1
# Processed by: cddbd v1.5.2PL0 Copyright (c) Steve Scherf et al.
# Submitted via: BonkEnc v1.0.8
# 
DISCID=d00f0f0f
DTITLE=Steve Berrios - First World
DYEAR=1994
DGENRE=Fusion
TTITLE0=Mafranbingo
TTITLE1=La Buena Noche Mi Ngo
TTITLE2=Once I Loved
TTITLE3=El Nino Rey
TTITLE4=Talkin' To Myself
TTITLE5=Ire Mowire
TTITLE6=Uranus
TTITLE7=Brushin' It
TTITLE8=Once In A While
TTITLE9=Alamofije
TTITLE10=Déjà Voodoo
TTITLE11=Dale
TTITLE12=Lonely Woman - Acolona
TTITLE13=Wild Is The Wind
TTITLE14=Son Bachéche
EXTD=YEAR: 1995
EXTT0=
EXTT1=
EXTT2=
EXTT3=
EXTT4=
EXTT5=
EXTT6=
EXTT7=
EXTT8=
EXTT9=
EXTT10=
EXTT11=
EXTT12=
EXTT13=
EXTT14=
PLAYORDER=
